<mxfile host="app.diagrams.net" agent="Mozilla/5.0 (Windows NT 10.0; Win64; x64) AppleWebKit/537.36 (KHTML, like Gecko) Chrome/129.0.0.0 Safari/537.36" version="24.8.0">
  <diagram name="Страница — 1" id="Q0biYI9USeyYw8p7I-JQ">
    <mxGraphModel dx="2390" dy="1287" grid="1" gridSize="10" guides="1" tooltips="1" connect="1" arrows="1" fold="1" page="1" pageScale="1" pageWidth="827" pageHeight="1169" math="0" shadow="0">
      <root>
        <mxCell id="0" />
        <mxCell id="1" parent="0" />
        <mxCell id="CAdHEho802mkfugjiyNk-1" value="" style="rounded=0;whiteSpace=wrap;html=1;" vertex="1" parent="1">
          <mxGeometry x="177" y="29" width="1155" height="1137" as="geometry" />
        </mxCell>
        <mxCell id="CAdHEho802mkfugjiyNk-2" style="vsdxID=5;fillColor=#CCCCFF;strokeColor=#3333FF;spacingTop=-3;spacingBottom=-3;spacingLeft=-3;spacingRight=-3;points=[];labelBackgroundColor=none;rounded=0;html=1;whiteSpace=wrap;fillStyle=dashed;fontStyle=1" vertex="1" parent="1">
          <mxGeometry x="430" y="70" width="860" height="1070" as="geometry" />
        </mxCell>
        <mxCell id="CAdHEho802mkfugjiyNk-3" style="vsdxID=6;fillColor=none;gradientColor=none;strokeColor=none;spacingTop=-3;spacingBottom=-3;spacingLeft=-3;spacingRight=-3;points=[];labelBackgroundColor=none;rounded=0;html=1;whiteSpace=wrap;strokeWidth=1;" vertex="1" parent="CAdHEho802mkfugjiyNk-2">
          <mxGeometry width="860" height="1070" as="geometry" />
        </mxCell>
        <mxCell id="CAdHEho802mkfugjiyNk-4" style="vsdxID=7;fillColor=none;gradientColor=none;shape=stencil(vVNdD4IgFP01PMpIms1ns//BEpVF4K6U9u/DoFJxPdjm2/04cO65cBDN2po1HMWkNaAvvBOFqRE9ojgWquYgjI0QzRHNSg28An1ThcsbNiCH6Krvww29O0eGEzF5uCwleP8qnByWwdk2wWMpTg8ODm88TlwhQHjAjniCPmK9aCPQhhmh1YRcMqh4ZLmiUrJq0mo7zpug7KeTQo2UpAkmdJF8pZjP7PPlbCAm4PazrZQS7mazZwm+xF9vsryVDWT89okNvgYrhZTOn+P+3JC25MxM8yc=);strokeColor=#3333FF;spacingTop=-3;spacingBottom=-3;spacingLeft=-3;spacingRight=-3;points=[];labelBackgroundColor=none;rounded=0;html=1;whiteSpace=wrap;" vertex="1" parent="CAdHEho802mkfugjiyNk-3">
          <mxGeometry width="860" height="1070" as="geometry" />
        </mxCell>
        <mxCell id="CAdHEho802mkfugjiyNk-5" value="&lt;div style=&quot;font-size: 1px&quot;&gt;&lt;font style=&quot;font-size:22.58px;font-family:Arial;color:#000000;direction:ltr;letter-spacing:0px;line-height:120%;opacity:1&quot;&gt;&lt;b&gt;IAM Folder&lt;/b&gt;&lt;br&gt;&lt;/font&gt;&lt;/div&gt;" style="verticalAlign=middle;align=center;overflow=width;vsdxID=8;fillColor=none;gradientColor=none;shape=stencil(nZBLDoAgDERP0z3SIyjew0SURgSD+Lu9kMZoXLhwN9O+tukAlrNpJg1SzDH4QW/URgNYgZTkjA4UkwJUgGXng+6DX1zLfmoymdXo17xh5zmRJ6Q42BWCfc2oJfdAr+Yv+AP9Cb7OJ3H/2JG1HNGz/84klThPVCc=);strokeColor=none;points=[];labelBackgroundColor=none;rounded=0;html=1;whiteSpace=wrap;" vertex="1" parent="CAdHEho802mkfugjiyNk-3">
          <mxGeometry x="57.977528089887635" y="1012.02" width="730.3139325842697" height="57.98" as="geometry" />
        </mxCell>
        <mxCell id="CAdHEho802mkfugjiyNk-6" value="VPN сервер" style="text;html=1;align=center;verticalAlign=middle;whiteSpace=wrap;rounded=0;fontSize=17;fontFamily=Arial;fontStyle=1" vertex="1" parent="CAdHEho802mkfugjiyNk-3">
          <mxGeometry x="488.58697170705295" y="505" width="57.97752808988764" height="30" as="geometry" />
        </mxCell>
        <mxCell id="CAdHEho802mkfugjiyNk-7" value="" style="shape=image;verticalLabelPosition=bottom;verticalAlign=top;imageAspect=0;image=data:image/svg+xml,PHN2ZyB4bWxucz0iaHR0cDovL3d3dy53My5vcmcvMjAwMC9zdmciIHdpZHRoPSIzMiIgaGVpZ2h0PSIzMiIgdmlld0JveD0iMCAwIDMyIDMyIiBmaWxsPSJub25lIj4mI3hhOzxwYXRoIGQ9Ik0wIDE2QzAgNy4xNjM0NCA3LjE2MzQ0IDAgMTYgMEMyNC44MzY2IDAgMzIgNy4xNjM0NCAzMiAxNkMzMiAyNC44MzY2IDI0LjgzNjYgMzIgMTYgMzJDNy4xNjM0NCAzMiAwIDI0LjgzNjYgMCAxNloiIGZpbGw9IiM1MjgyRkYiLz4mI3hhOzxwYXRoIGZpbGwtcnVsZT0iZXZlbm9kZCIgY2xpcC1ydWxlPSJldmVub2RkIiBkPSJNMTAgMjEuNDkzVjEyLjRDMTAuMzkgMTIuNzIgMTAuODYzIDEyLjk3MyAxMS4zNzQgMTMuMTg3QzEyLjYwOSAxMy43MDcgMTQuMjQ0IDE0IDE2IDE0QzE3Ljc1NCAxNCAxOS4zOSAxMy43MDcgMjAuNjI1IDEzLjE4N0MyMS4xMzUgMTIuOTczIDIxLjYwOSAxMi43MiAyMS45OTkgMTIuNFYyMS40OTNDMjIgMjIuODggMTkuMzEyIDI0IDE2IDI0QzEyLjY4OCAyNCAxMCAyMi44OCAxMCAyMS40OTNaTTE0LjUzIDIyLjUzM0wxNiAyMS4wNjdMMTcuNDcgMjIuNTMzQzE3LjUzOTUgMjIuNjAyNiAxNy42MjIgMjIuNjU3OSAxNy43MTI5IDIyLjY5NTZDMTcuODAzNyAyMi43MzMzIDE3LjkwMTEgMjIuNzUyNyAxNy45OTk1IDIyLjc1MjdDMTguMDk3OSAyMi43NTI3IDE4LjE5NTMgMjIuNzMzMyAxOC4yODYxIDIyLjY5NTZDMTguMzc3IDIyLjY1NzkgMTguNDU5NSAyMi42MDI2IDE4LjUyOSAyMi41MzNDMTguNjY5NiAyMi4zOTEyIDE4Ljc0ODQgMjIuMTk5NyAxOC43NDg0IDIyQzE4Ljc0ODQgMjEuODAwMyAxOC42Njk2IDIxLjYwODggMTguNTI5IDIxLjQ2N0wxNi41MjkgMTkuNDY3QzE2LjQ1OTUgMTkuMzk3MiAxNi4zNzY5IDE5LjM0MTggMTYuMjg2IDE5LjMwNDFDMTYuMTk1IDE5LjI2NjMgMTYuMDk3NSAxOS4yNDY4IDE1Ljk5OSAxOS4yNDY4QzE1LjkwMDUgMTkuMjQ2OCAxNS44MDMgMTkuMjY2MyAxNS43MTIgMTkuMzA0MUMxNS42MjExIDE5LjM0MTggMTUuNTM4NSAxOS4zOTcyIDE1LjQ2OSAxOS40NjdMMTMuNDY5IDIxLjQ2N0MxMy4zMjg0IDIxLjYwODggMTMuMjQ5NSAyMS44MDAzIDEzLjI0OTUgMjJDMTMuMjQ5NSAyMi4xOTk3IDEzLjMyODQgMjIuMzkxMiAxMy40NjkgMjIuNTMzQzEzLjUzODUgMjIuNjAyOCAxMy42MjExIDIyLjY1ODIgMTMuNzEyIDIyLjY5NTlDMTMuODAzIDIyLjczMzcgMTMuOTAwNSAyMi43NTMyIDEzLjk5OSAyMi43NTMyQzE0LjA5NzUgMjIuNzUzMiAxNC4xOTUgMjIuNzMzNyAxNC4yODYgMjIuNjk1OUMxNC4zNzY5IDIyLjY1ODIgMTQuNDU5NSAyMi42MDI4IDE0LjUyOSAyMi41MzNIMTQuNTNaTTE0LjUzIDE4LjUzM0wxNiAxNy4wNjdMMTcuNDcgMTguNTMzQzE3LjUzOTUgMTguNjAyNiAxNy42MjIgMTguNjU3OSAxNy43MTI5IDE4LjY5NTZDMTcuODAzNyAxOC43MzMzIDE3LjkwMTEgMTguNzUyNyAxNy45OTk1IDE4Ljc1MjdDMTguMDk3OSAxOC43NTI3IDE4LjE5NTMgMTguNzMzMyAxOC4yODYxIDE4LjY5NTZDMTguMzc3IDE4LjY1NzkgMTguNDU5NSAxOC42MDI2IDE4LjUyOSAxOC41MzNDMTguNjY5NiAxOC4zOTEyIDE4Ljc0ODQgMTguMTk5NyAxOC43NDg0IDE4QzE4Ljc0ODQgMTcuODAwMyAxOC42Njk2IDE3LjYwODggMTguNTI5IDE3LjQ2N0wxNi41MjkgMTUuNDY3QzE2LjQ1OTUgMTUuMzk3MiAxNi4zNzY5IDE1LjM0MTggMTYuMjg2IDE1LjMwNDFDMTYuMTk1IDE1LjI2NjMgMTYuMDk3NSAxNS4yNDY4IDE1Ljk5OSAxNS4yNDY4QzE1LjkwMDUgMTUuMjQ2OCAxNS44MDMgMTUuMjY2MyAxNS43MTIgMTUuMzA0MUMxNS42MjExIDE1LjM0MTggMTUuNTM4NSAxNS4zOTcyIDE1LjQ2OSAxNS40NjdMMTMuNDY5IDE3LjQ2N0MxMy4zMjg0IDE3LjYwODggMTMuMjQ5NSAxNy44MDAzIDEzLjI0OTUgMThDMTMuMjQ5NSAxOC4xOTk3IDEzLjMyODQgMTguMzkxMiAxMy40NjkgMTguNTMzQzEzLjUzODUgMTguNjAyOCAxMy42MjExIDE4LjY1ODIgMTMuNzEyIDE4LjY5NTlDMTMuODAzIDE4LjczMzcgMTMuOTAwNSAxOC43NTMyIDEzLjk5OSAxOC43NTMyQzE0LjA5NzUgMTguNzUzMiAxNC4xOTUgMTguNzMzNyAxNC4yODYgMTguNjk1OUMxNC4zNzY5IDE4LjY1ODIgMTQuNDU5NSAxOC42MDI4IDE0LjUyOSAxOC41MzNIMTQuNTNaTTEwIDEwLjQ5M0MxMCA5LjEyIDEyLjY4OSA4IDE2IDhDMTkuMzExIDggMjIgOS4xMiAyMiAxMC40OTNDMjIgMTEuODggMTkuMzExIDEzIDE2IDEzQzEyLjY4OSAxMyAxMCAxMS44OCAxMCAxMC40OTNaIiBmaWxsPSJ3aGl0ZSIvPiYjeGE7PC9zdmc+;" vertex="1" parent="CAdHEho802mkfugjiyNk-3">
          <mxGeometry x="20.722891566265062" y="560" width="62.16867469879518" height="60" as="geometry" />
        </mxCell>
        <mxCell id="CAdHEho802mkfugjiyNk-8" value="Data Transfer" style="text;html=1;align=center;verticalAlign=middle;whiteSpace=wrap;rounded=0;fontSize=17;fontFamily=Arial;fontStyle=1" vertex="1" parent="CAdHEho802mkfugjiyNk-3">
          <mxGeometry x="50" y="520" width="145.06024096385542" height="40" as="geometry" />
        </mxCell>
        <mxCell id="CAdHEho802mkfugjiyNk-9" value="" style="shape=image;verticalLabelPosition=bottom;verticalAlign=top;imageAspect=0;aspect=fixed;image=data:image/svg+xml,PHN2ZyB4bWxucz0iaHR0cDovL3d3dy53My5vcmcvMjAwMC9zdmciIHdpZHRoPSIzMiIgaGVpZ2h0PSIzMiIgdmlld0JveD0iMCAwIDMyIDMyIiBmaWxsPSJub25lIj4mI3hhOzxwYXRoIGQ9Ik0wIDE2QzAgNy4xNjM0NCA3LjE2MzQ0IDAgMTYgMFYwQzI0LjgzNjYgMCAzMiA3LjE2MzQ0IDMyIDE2VjE2QzMyIDI0LjgzNjYgMjQuODM2NiAzMiAxNiAzMlYzMkM3LjE2MzQ0IDMyIDAgMjQuODM2NiAwIDE2VjE2WiIgZmlsbD0iIzUyODJGRiIvPiYjeGE7PHBhdGggZD0iTTE4LjUgOEMxNS41IDggMTMgMTAuNSAxMyAxMy41QzEzIDE0LjIgMTMuMSAxNC45IDEzLjQgMTUuNkw4IDIxVjI0SDExTDE2LjQgMTguNkMxNy4xIDE4LjkgMTcuOCAxOSAxOC41IDE5QzIxLjUgMTkgMjQgMTYuNSAyNCAxMy41QzI0IDEwLjUgMjEuNSA4IDE4LjUgOFpNMjAgMTRDMTguOSAxNCAxOCAxMy4xIDE4IDEyQzE4IDEwLjkgMTguOSAxMCAyMCAxMEMyMS4xIDEwIDIyIDEwLjkgMjIgMTJDMjIgMTMuMSAyMS4xIDE0IDIwIDE0WiIgZmlsbD0id2hpdGUiLz4mI3hhOzwvc3ZnPg==;" vertex="1" parent="CAdHEho802mkfugjiyNk-3">
          <mxGeometry x="-19.999213483146093" y="213.37" width="53.258426966292134" height="53.258426966292134" as="geometry" />
        </mxCell>
        <mxCell id="CAdHEho802mkfugjiyNk-10" value="" style="vsdxID=6;fillColor=none;gradientColor=none;shape=stencil(vVNdD4IgFP01POIQms1nq//BEpVF4q6U9u/DoFJxPdjm2/04cO65cBDL2oo3AlHSGtAX0cncVIgdEKWyrgRIYyPEjohlhQZRgr7VucsbPiCH6Krvww29O0eGE5Q8XJaSaPcqnByWw9k2wWNZRFMHhzc+SlwhQHhATDxBj3kvWwzacCN1PSFXHEqBLRcuFC8nrbYTognKfjol65GSNIn28SL5SjGf2efL2UBMwO1nWykl3M1mzxJ8ib/eZHkrG8j47RMbfA1WSKWcP8f9uSFtyZmZHZ8=);strokeColor=#5282ff;spacingTop=-3;spacingBottom=-3;spacingLeft=-3;spacingRight=-3;points=[];labelBackgroundColor=none;rounded=0;html=1;whiteSpace=wrap;strokeWidth=3;" vertex="1" parent="1">
          <mxGeometry x="550" y="106" width="690" height="450" as="geometry" />
        </mxCell>
        <mxCell id="CAdHEho802mkfugjiyNk-11" style="vsdxID=5;fillColor=none;gradientColor=none;strokeColor=none;spacingTop=-3;spacingBottom=-3;spacingLeft=-3;spacingRight=-3;points=[];labelBackgroundColor=none;rounded=0;html=1;whiteSpace=wrap;" vertex="1" parent="1">
          <mxGeometry x="240" y="280" width="59" height="60" as="geometry" />
        </mxCell>
        <mxCell id="CAdHEho802mkfugjiyNk-12" style="vsdxID=6;fillColor=#5282ff;gradientColor=none;shape=stencil(jZLRDoIwDEW/Zq9ka8XBo0H8DyIgiwhmgMLfyywGNiRhT+12253elGHUFMkzY8CbVtf37K3StmB4ZgCqKjKt2jFiGDOM8lpnN113VUr5MzFKEz3ql+nQU53PTQnwgVLKLqS8dpqkgh6l9PxQikD6U41YFvEeKBX813O6APAwXJ5Jj64eLaYvBT/9AZkrZrKjDbFideF6dAxwaLZ/H8c5cJCBAMeHuTdYxgywokRbsHdwZ+wtY2EL1ObassClKFW1c2PGYF60XJUl7eny3V3M8YqWGuMP);strokeColor=none;spacingTop=-3;spacingBottom=-3;spacingLeft=-3;spacingRight=-3;points=[];labelBackgroundColor=none;rounded=0;html=1;whiteSpace=wrap;" vertex="1" parent="CAdHEho802mkfugjiyNk-11">
          <mxGeometry width="59" height="60" as="geometry" />
        </mxCell>
        <mxCell id="CAdHEho802mkfugjiyNk-13" style="vsdxID=7;fillColor=#FFFFFF;gradientColor=none;shape=stencil(lZfdcttGDIWfRrc7wOL/spMm75FpnFpT184oTpu+fQ9NUTI3lGTHE4/M1ZLfAucA4E4+fL///O1u1+n78+Hpr7t/91+e73fy+673/eP93WH/jE87+biTD1+fDnd/Hp5+PH6Z//72efrm9Onvp3+mO/yc92lTnTZ1+m++UNJEXq58mr//x4/DvIHnL/QmqWw9ubPnsvm4WL2ZegaJcpTUvPqzz6vcuGt6iJFpynHrcbG4Zef0ykzHLY5bZV6l5sujjleyWtUZlH7bYKU1XVqzKnH8Kicd4bokOZuWqPkaLnFq8nSp6VxrtFchXNDoBhdrC0S6jDltzRjaELxKiUAwbM3Ys2k5KEyj9yGAwQDB/YJxW+c1pODofU3p0SRugEq0REKkI9PZB1S35uZpgh87iuaEip2R5tBKOvVcozpEZqERVKnLOU6o0SwGVG6ht1HFcXDqSiY5oFJj1wpjEqZBluJNqojKjGIJ3IJq2XA4wnrZL6oUbclrVPN2zNplVKQxXa2TlwgPFjLC8ZHlAqcsOjwJQJp2hYuMcdhaoyo3xx5J2CtlQH3ZuUbFJem3UDcfeJYxRAHBBSyVnWiUKzTALBBrwT2xpkWWe6rCpNYDjtRfQisDr7RjOK6IINtZrjrgUpvimoH/hlRTDhVArYEoDNXNRYfg0hrPaM12y/E2Ob5LJ02mGIxEaw6onSDkEBgZih04Lh1isQpMWe+OW/TWC4mEHVVsMM+lTC2J9GaJ3cQvBXSNe1Ei8mrz+2W5/Uy+5oNzlWQFESq58uj1TeudA8tDYN/idZQ6JyAaoav56PV8aZeK4sKxVJKTDDp6nhWrINc5uGe7oMlpp8oa9S0VFNumhMHnMHvFGnW7ZJ9RmWA4LuuDALabxEKF3jnE9C1dCTnEuSFUKurU16AvbXAyGcMe7jUUe8wAPcIDvTfr1NEWcWw23yNZWTuNBW9t9JUtvIiFMimGejQNFSwokIV5o4ZKz0Rrtu3hZWGrJWrvmo+Al5AQ6qWCYQjkhYFsGdei+TTvMezdx3FpGgNNuCOYFrRk6Eogh6lzEzYVExo5OmYSadUQTQAhmoG5ErGrPuC6t4JpACNZo+9rCtXrf9dr/ZKaK21IGkGCBPumjQ3+0tOWxFuDPlGcEDqJQaAXDnlxEt2K68P+8V0vAPhwfnv4un94mF8+Xq+Pbxu4NL+pyMf/AQ==);strokeColor=none;spacingTop=-3;spacingBottom=-3;spacingLeft=-3;spacingRight=-3;points=[];labelBackgroundColor=none;rounded=0;html=1;whiteSpace=wrap;" vertex="1" parent="CAdHEho802mkfugjiyNk-11">
          <mxGeometry x="16.09090909090909" y="14.545454545454545" width="25.03030303030303" height="29.09090909090909" as="geometry" />
        </mxCell>
        <mxCell id="CAdHEho802mkfugjiyNk-14" style="vsdxID=5;fillColor=none;gradientColor=none;strokeColor=none;spacingTop=-3;spacingBottom=-3;spacingLeft=-3;spacingRight=-3;points=[];labelBackgroundColor=none;rounded=0;html=1;whiteSpace=wrap;fontStyle=1" vertex="1" parent="1">
          <mxGeometry x="550" y="630" width="690" height="450" as="geometry" />
        </mxCell>
        <mxCell id="CAdHEho802mkfugjiyNk-15" style="vsdxID=6;fillColor=none;gradientColor=none;shape=stencil(vVNdD4IgFP01POIQms1nq//BEpVF4q6U9u/DoFJxPdjm2/04cO65cBDL2oo3AlHSGtAX0cncVIgdEKWyrgRIYyPEjohlhQZRgr7VucsbPiCH6Krvww29O0eGE5Q8XJaSaPcqnByWw9k2wWNZRFMHhzc+SlwhQHhATDxBj3kvWwzacCN1PSFXHEqBLRcuFC8nrbYTognKfjol65GSNIn28SL5SjGf2efL2UBMwO1nWykl3M1mzxJ8ib/eZHkrG8j47RMbfA1WSKWcP8f9uSFtyZmZHZ8=);strokeColor=#5282ff;spacingTop=-3;spacingBottom=-3;spacingLeft=-3;spacingRight=-3;points=[];labelBackgroundColor=none;rounded=0;html=1;whiteSpace=wrap;" vertex="1" parent="CAdHEho802mkfugjiyNk-14">
          <mxGeometry width="690" height="450" as="geometry" />
        </mxCell>
        <mxCell id="CAdHEho802mkfugjiyNk-16" style="vsdxID=5;fillColor=none;gradientColor=none;strokeColor=none;spacingTop=-3;spacingBottom=-3;spacingLeft=-3;spacingRight=-3;points=[];labelBackgroundColor=none;rounded=0;html=1;whiteSpace=wrap;" vertex="1" parent="CAdHEho802mkfugjiyNk-14">
          <mxGeometry x="317" y="-30" width="56" height="60" as="geometry" />
        </mxCell>
        <mxCell id="CAdHEho802mkfugjiyNk-17" style="vsdxID=6;fillColor=#5282ff;gradientColor=none;shape=stencil(jZLREoIgEEW/hlcHdjPtsTH7DycxmUwb1NK/T1sbgYlJnnZhLxzuXIZJW2YPyYC3nW5u8qXyrmR4YgCqLqVW3VQxTBkmRaPlVTd9nVP/yObJubo3z/mGgXQhnyXAR2qpO9Pkpdc0KugwioI9N5ZYpMLU8gGoFfx79bIBEOAhAhFHIenjRYCuAC22Dw0//gBaFSYhxAJCm8VH7qIO6LjioPlRps/tzBc42GTrE2C5NYKHHO2xrZY4hng9hz/YNqXPF5emUvXGbE3FGslCVRUl2jx3IzxtUfwxfQM=);strokeColor=none;spacingTop=-3;spacingBottom=-3;spacingLeft=-3;spacingRight=-3;points=[];labelBackgroundColor=none;rounded=0;html=1;whiteSpace=wrap;" vertex="1" parent="CAdHEho802mkfugjiyNk-16">
          <mxGeometry width="56" height="60" as="geometry" />
        </mxCell>
        <mxCell id="CAdHEho802mkfugjiyNk-18" style="vsdxID=7;fillColor=#FFFFFF;gradientColor=none;shape=stencil(pZrbkttGDoafZm67cOpu4DKVTd4jtXHWU/HaqYlz2Lffv0eiRKIpcuX11VgkSKABfDhIL/r97x9/+u3Di9DvX9++/Prhr9efv3580X+8iLx+/vjh7fUr/nrRH170+1++vH3419uXPz7/fPn/bz+NO8df//7y53jC3xc51cJ9SAn95/JJtNIun/x4EfjnH28XCb6LtGrUIpw1iOpV/no9rLhKqyymEv169W+5SltplZoQ9xrViewqfb0eWlSDhXrTMIqrtF6lWzG/CuhdwO760ndQ+dPr55WNBoV5a+NWZrbRrFRurQebeEQycF/FqwFWC4wPbmy9OyfrpEQP6ira8XjjrXmQbZrMk9KyeZO2tUQTpnAxd0vaSlGprWqrcI1nbXGgHI28SgtPyjK0cY+magp7kq6QlKQrHfthJXEVKNezfeSGPe2u17xoN1NHGIlFLJdXbkDsaadWm0tsLeuleW/Ohijmdpd97IaOt517QaCL167slGKmF1KTxl6rB6I+uwHxhsSiwGXvstUWCdl6tdZd3JA4SdlVdOtNICu79cQ6jfZEdpIeR0JIBnZpBvUjRdkDHe9J35HrwAGSgjmbh+BSgICBDaFsH2TZtvZBlzhxBiBV2eD44EBKRCRI1YLA8OYtbKR5jp6HjFv8VYS743NklLQbxG46r6i6fARmnOt8CFYpZlHxOUs1xBC1Sel9m6/XebiwMRsL0gLiWev5pKlcT+ZA613f8iKvlblHw1nVoVVo0vlRXF2v0yn/T5gzsX91/24O1wbkmzd4ItmSUtYLKwkS1rq3FNNUmgDvoWCQd3hSt3ZUmpIW3q0nR12lMOKu4dlA+lY7QxYhZgRYg+fxRtuqW7VQJQJpIgBNmpIwkL8+eE/Ql7QmhYf4VmE+Pvm1xM0X6xzIAq0VsWcF2kYAmK1y5N8hUlGVlRluTsEqI5JbV6u1NklEaD4I3pvV6IRqlCoK8hsVBXxXJ5TciLY9v05FssNHrB0eYXR0UtsTgZ+O7GOiFBZe4NUB5torpV7sfvcSJIwD19ob0pk0mbDWZhUVfGjC2u7rJ4jUeugjnLRwJXRIlVy29vQGN4BioYy6nmDyHkHwHpoDQ/O1ta3XApEuhNIP/29tW8fe4jEk5KFpc7zWXEXnjGj/n0DQ5sB3EDGybrAruGrdac5xXcVYUQdCc50egNEKiKAR4Vw+YpRdOGC0tTjgdIKDaLkd7HOAT8AdFG3uA2muuXUNdF2oZmjUUNJqTwDeY3WO7HWXlNRb7jlqkmJz+huJBz2SE8LP0N4nW+4arXqihuYDCUe3SL6ddaDrx6EQzKtmcl6pIUFyctijQRA2ZLdWX47zdthoqMNH9jQ4mVP5eO9owASMLMa5gxuORr6aAqsBAiZl52YozjvU87n0aYHt5MtaZBaIx2/YEcjZmARQEp7LXn6fadgDBUYooW9Iw3Nosggxn1BOxd+7xo6xFZmvuT55FCdDnsD/WhPZCe7bOgi3n3YjSPjA6IVXBUriLYL59gSEfG3oNY3cs7ZoYrugX3Gu4tpTQLmjf8JUYHi+aU/aJlUHQQ5jiTZO6L6h0o5dqeKMnkJR8HtUsunUtdrgKdCpGASSHahWSG2MdACxLf5c7FiFh65uPzRljsEkcy7Q4qSFGBLGqB0YYtG65+0HyjP4Zh0thaqkA2EU91FAalMU7wS11ksHGzF64AEtn0Zd9hz3MdZLz0hLSS+L7xfrnIsdehecMAAXHtV+63JvQYua35AfHCiPMo9XO5JLxILIENExYZlnAq7UXKK2LvXooatXS4h7A3bYOe2f/p3vXhW1NICHuhTDm+MeeV1u0jrwjmI1NmJpOlhH2QrxeUg/5enTAM4CZ4hvmprPszecdGgT4qf79xCvuM+qkNWE+CHdwEzlMMmb04H4PuoCO0DEqb2FKJoJ9H94srUUgDPgcTvnzn0P8GiYDRUpCDpRDqlax+iPyd3HxiszPulXi4y9V4suWbukGhqjYwpugT72bnp05HkkQqp6jQbNUbWInoW6Xda/3m1nQT1D3U7303PUWd5PnwmgVz0uamdUR0cZBKhTr4Esj7SfPOQ6ZLWPTT6uSssHMnMdfbIeO3jm+pgT5MjAQ64bmhEZ0zlaoOA2rSePyI7BpvdhO9NoHk7Jjhn6JHxnsjc72Vsckr1hEGJMCU4IS0u2nYEdrw7HRMz+/m3NKdfbN4Tz09SdBM64ried+CQgx6ulievT/U9xfUgjdnoMBMKBeRFzjHYZs6uPpkSBpFO0i5R+9l3FKdrHOnJ8oyQxvqfz2/UHdIf5qFjIH8JgGTQtxBPicbsdB9EW8Qx/HDatCfGMAzXHBBENNXHelJ8hnt8HFEMxlbG1jikvJsqfLEPnAOTNKuGU78sW7RvxzigPJFQD0+PYD6dVyiHeuWB2wWSJHpDHnmE6jJnwUujYvTPgeVv1nwQ8dOiOf8bIMxor7icIzx0X6/g+EB1BS9btEJ79LHpnwisv64lvIfxQAmM/5vfubP32Lcn/Cnm8HQ+NDgDhltvy+gDz+mw8P03gSQB/3H+l8Mvrp0+XHzmsr+dfNeCjyy8i9If/Ag==);strokeColor=none;spacingTop=-3;spacingBottom=-3;spacingLeft=-3;spacingRight=-3;points=[];labelBackgroundColor=none;rounded=0;html=1;whiteSpace=wrap;" vertex="1" parent="CAdHEho802mkfugjiyNk-16">
          <mxGeometry x="15.272727272727273" y="16.363636363636363" width="25.454545454545457" height="27.272727272727273" as="geometry" />
        </mxCell>
        <mxCell id="CAdHEho802mkfugjiyNk-19" style="edgeStyle=orthogonalEdgeStyle;rounded=0;orthogonalLoop=1;jettySize=auto;html=1;horizontal=1;curved=1;startArrow=classic;startFill=1;" edge="1" parent="CAdHEho802mkfugjiyNk-14" source="CAdHEho802mkfugjiyNk-20" target="CAdHEho802mkfugjiyNk-26">
          <mxGeometry relative="1" as="geometry" />
        </mxCell>
        <mxCell id="CAdHEho802mkfugjiyNk-20" value="" style="shape=image;verticalLabelPosition=bottom;verticalAlign=top;imageAspect=0;aspect=fixed;image=data:image/svg+xml,PHN2ZyB4bWxucz0iaHR0cDovL3d3dy53My5vcmcvMjAwMC9zdmciIHdpZHRoPSIzMiIgaGVpZ2h0PSIzMiIgdmlld0JveD0iMCAwIDMyIDMyIiBmaWxsPSJub25lIj4mI3hhOzxwYXRoIGQ9Ik0wIDE2QzAgNy4xNjM0NCA3LjE2MzQ0IDAgMTYgMFYwQzI0LjgzNjYgMCAzMiA3LjE2MzQ0IDMyIDE2VjE2QzMyIDI0LjgzNjYgMjQuODM2NiAzMiAxNiAzMlYzMkM3LjE2MzQ0IDMyIDAgMjQuODM2NiAwIDE2VjE2WiIgZmlsbD0iIzUyODJGRiIvPiYjeGE7PHBhdGggZD0iTTEyIDExSDE4LjlDMTguNCA5LjggMTYuNSA5IDE0IDlDMTEuMiA5IDkgMTAuMSA5IDExLjVWMjAuNUM5IDIxLjkgMTEuMiAyMyAxNCAyM0MxNi41IDIzIDE4LjQgMjIuMiAxOC45IDIxSDEyVjExWk0xMyAxMlYyMEgyNVYxMkgxM1pNMTcuMyAxOEgxNkwxNSAxNkwxNiAxNEgxNy4zTDE2LjMgMTZMMTcuMyAxOFpNMTkgMTlIMTcuOEwxOSAxM0gyMC4yTDE5IDE5Wk0yMiAxOEgyMC43TDIxLjggMTZMMjAuNyAxNEgyMkwyMyAxNkwyMiAxOFoiIGZpbGw9IndoaXRlIi8+JiN4YTs8L3N2Zz4=;" vertex="1" parent="CAdHEho802mkfugjiyNk-14">
          <mxGeometry x="180" y="290" width="60" height="60" as="geometry" />
        </mxCell>
        <mxCell id="CAdHEho802mkfugjiyNk-21" value="" style="shape=image;verticalLabelPosition=bottom;verticalAlign=top;imageAspect=0;aspect=fixed;image=data:image/svg+xml,PHN2ZyB4bWxucz0iaHR0cDovL3d3dy53My5vcmcvMjAwMC9zdmciIHdpZHRoPSIzMiIgaGVpZ2h0PSIzMiIgdmlld0JveD0iMCAwIDMyIDMyIiBmaWxsPSJub25lIj4mI3hhOzxwYXRoIGQ9Ik0wIDE2QzAgNy4xNjM0NCA3LjE2MzQ0IDAgMTYgMFYwQzI0LjgzNjYgMCAzMiA3LjE2MzQ0IDMyIDE2VjE2QzMyIDI0LjgzNjYgMjQuODM2NiAzMiAxNiAzMlYzMkM3LjE2MzQ0IDMyIDAgMjQuODM2NiAwIDE2VjE2WiIgZmlsbD0iIzUyODJGRiIvPiYjeGE7PHBhdGggZD0iTTI0IDExQzI0IDkuOSAyMy4xIDkgMjIgOUMyMC45IDkgMjAgOS45IDIwIDExQzIwIDExLjcgMjAuNCAxMi40IDIxIDEyLjdWMTVIMTdWMTIuN0MxNy42IDEyLjMgMTggMTEuNyAxOCAxMUMxOCA5LjkgMTcuMSA5IDE2IDlDMTQuOSA5IDE0IDkuOSAxNCAxMUMxNCAxMS43IDE0LjQgMTIuNCAxNSAxMi43VjE1SDExVjEyLjdDMTEuNiAxMi4zIDEyIDExLjcgMTIgMTFDMTIgOS45IDExLjEgOSAxMCA5QzguOSA5IDggOS45IDggMTFDOCAxMS43IDguNCAxMi40IDkgMTIuN1YxNUM5IDE2LjEgOS45IDE3IDExIDE3SDEyVjE5LjNDMTEuNCAxOS43IDExIDIwLjMgMTEgMjFDMTEgMjIuMSAxMS45IDIzIDEzIDIzQzE0LjEgMjMgMTUgMjIuMSAxNSAyMUMxNSAyMC4zIDE0LjYgMTkuNiAxNCAxOS4zVjE3SDE4VjE5LjNDMTcuNCAxOS43IDE3IDIwLjMgMTcgMjFDMTcgMjIuMSAxNy45IDIzIDE5IDIzQzIwLjEgMjMgMjEgMjIuMSAyMSAyMUMyMSAyMC4zIDIwLjYgMTkuNiAyMCAxOS4zVjE3SDIxQzIyLjEgMTcgMjMgMTYuMSAyMyAxNVYxMi43QzIzLjYgMTIuNCAyNCAxMS43IDI0IDExWiIgZmlsbD0id2hpdGUiLz4mI3hhOzwvc3ZnPg==;" vertex="1" parent="CAdHEho802mkfugjiyNk-14">
          <mxGeometry x="470" y="380" width="60" height="60" as="geometry" />
        </mxCell>
        <mxCell id="CAdHEho802mkfugjiyNk-22" style="vsdxID=5;fillColor=none;gradientColor=none;strokeColor=none;spacingTop=-3;spacingBottom=-3;spacingLeft=-3;spacingRight=-3;points=[];labelBackgroundColor=none;rounded=0;html=1;whiteSpace=wrap;" vertex="1" parent="CAdHEho802mkfugjiyNk-14">
          <mxGeometry x="180" y="60" width="60" height="60" as="geometry" />
        </mxCell>
        <mxCell id="CAdHEho802mkfugjiyNk-23" style="vsdxID=6;fillColor=#5282ff;gradientColor=none;shape=stencil(lZJBDoIwEEVP0y1pp5Di0qDeg0iRRgRSQOH2UgYCLRKV1Uw7f3h8PuFRncWVJEDrRpd3+VJJkxF+IgCqyKRWzVARfiY8Skstb7psiwT7KjaTpnqUT7OhQ11AjQRojy12F5y8thpHGV4K4QUHwUIRTBq2FtEOsGV03jkdAHg+BRGy4W3j408C7gq4BTVi0OMHkkWxgzazbJBdxo47PjhM+wyrr7JZlt1g+dPvMM0I/5rgWLDr8vYv2DxfnHAxclX8mJ+hWGKXqjzH1K7v3ZgORxhxfn4D);strokeColor=none;spacingTop=-3;spacingBottom=-3;spacingLeft=-3;spacingRight=-3;points=[];labelBackgroundColor=none;rounded=0;html=1;whiteSpace=wrap;" vertex="1" parent="CAdHEho802mkfugjiyNk-22">
          <mxGeometry width="60" height="60" as="geometry" />
        </mxCell>
        <mxCell id="CAdHEho802mkfugjiyNk-24" style="vsdxID=7;fillColor=#FFFFFF;gradientColor=none;shape=stencil(pVXbbtswDP0avwqkKInS49C1/1G06WIsSwo33dq/HxX5RtlxFwwIAl14ZB2eQ6qhu7f94+uusfB27k4/d3/a5/O+oe+Nte1xv+vas4waum/o7uXU7X50p/fjc5m/PubIPPp1+p1P+Cg4F4xNGWXhs6ykZJK9rDwUwKE9zgBk2Kp4jgbCPP7pvStfwBKAJnD0jM5e/gEGfL/PbAApACfnIHHZ/LBlE/rYfsrOuOBCTHIiAPWxpGP7KVtDPF0Mvi24gCJiowm4RQT0vSXeeuIoOfEuSd6qmxugibVNqJlYNgkkiglDSvKryRi0mo8gvNvkI2I6UpxcMtY1V8XMAK1mVj9tJUEgxF5nIoMYgCMTkAOuNMwQm/o8xKDzkLHOo3NEMfmIOgtze9KqP9fTcJun/wGgq8aT8awACHD9/GX4F7rI58c8rYq/1CXf2E9uq6zKJsaEGDigl7uiFugiehiwcXDyaFUxugsEmDCKyABOizRwn5yqK2lFogmyWqsrTQSq6lvvBAOhaGhWfFUPkX5jpd14JAHzWLeDv5aWyy1uu5OIwozNDZb7bwdV4VVXH6t4NByZiNfPd4O7Rr9Z428pGDSg4hdtQxQZDTZS0Y11UM/rF0OrN8TSlPiqT+qrrIiVvFinZuvSBt2b0/k1QAbTm/zSHg7lSZ/v12+4LJX3n+7/Ag==);strokeColor=none;spacingTop=-3;spacingBottom=-3;spacingLeft=-3;spacingRight=-3;points=[];labelBackgroundColor=none;rounded=0;html=1;whiteSpace=wrap;" vertex="1" parent="CAdHEho802mkfugjiyNk-22">
          <mxGeometry x="16.363636363636363" y="14.545454545454545" width="25.454545454545453" height="29.09090909090909" as="geometry" />
        </mxCell>
        <mxCell id="CAdHEho802mkfugjiyNk-25" style="vsdxID=5;fillColor=none;gradientColor=none;strokeColor=none;spacingTop=-3;spacingBottom=-3;spacingLeft=-3;spacingRight=-3;points=[];labelBackgroundColor=none;rounded=0;html=1;whiteSpace=wrap;" vertex="1" parent="CAdHEho802mkfugjiyNk-14">
          <mxGeometry x="316" y="180" width="58" height="60" as="geometry" />
        </mxCell>
        <mxCell id="CAdHEho802mkfugjiyNk-26" style="vsdxID=6;fillColor=#5282ff;gradientColor=none;shape=stencil(jZLRDoIwDEW/Zq9ka8XBo0H8DyIgiwhmgMLfyywGNiRhT+12253elGHUFMkzY8CbVtf37K3StmB4ZgCqKjKt2jFiGDOM8lpnN113VUr5MzFKEz3ql+nQU53PTQnwgVLKLqS8dpqkgh6l9PxQikD6U41YFvEeKBX813O6APAwXJ5Jj64eLaYvBT/9AZkrZrKjDbFideF6dAxwaLZ/H8c5cJCBAMeHuTdYxgywokRbsHdwZ+wtY2EL1ObassClKFW1c2PGYF60XJUl7eny3V3M8YqWGuMP);strokeColor=none;spacingTop=-3;spacingBottom=-3;spacingLeft=-3;spacingRight=-3;points=[];labelBackgroundColor=none;rounded=0;html=1;whiteSpace=wrap;" vertex="1" parent="CAdHEho802mkfugjiyNk-25">
          <mxGeometry width="58" height="60" as="geometry" />
        </mxCell>
        <mxCell id="CAdHEho802mkfugjiyNk-27" style="vsdxID=7;fillColor=#FFFFFF;gradientColor=none;shape=stencil(lVjRVtswDP2avurYkizJjzuM/QdnlNEzRjkFNvb3U0i6xk6axDyV1Ne+upKu3Ozo5vXx7mW/w/D6djr+3P853L897ujrDvHw/Lg/Hd78045ud3TzcDztf5yO78/3/f8vd93K7tOv4+9uh48eFw00dSgMf/snmUDl88m3HvB0eB4BkCFLEyBBiBNAGgO+v596TrFfQAHUmSnn4U8HfBxtEKOoppBQBjofOKCdoWX6H9bw2DJosKiE5thhxw8aMAqRhvXDI5MirPBljqhBSEEwlfwsQVRVyTkwcq7oGUgYYc70CCSHxGpoHnlFzyCnil4ErOmVwhsYFbpXkJlwPLVxEoyjUtaEwciwCiaUQagCZs0ZmVSEyiBCGYAiMC4GEEr2YLxEPpS0P2PRlIUligseuUqDK1qlIJR8R/oVEVyjmyPEsjPCEt8sEMi0UjuULGOoFL4aFtUAmpNthvYFMZuXKfELIC5lHS9hcl3rsyVFUxk317pECKX2q8XuECaZJMD7UL0PnQaz1dYi6F4WbWItCUiSG4+p+wud7e4ckaMst5uLuHHqyMfOBN3HhDm67IlqtTV0yk6874phnjtx5NA0Aiwq3oG4ZQ50CVkB1AoYj5p07P3KUZK5AhLL+E2Bc6y9NSf3Vk6Jk3n60Ko+7zBl+OcSv9ozCOXQLAAzLYNAM9bqvCxpQPZhl3KuYonsU1AmxXZFgDPz0TynWZnnwlm/BExuDanMZSrir24AEXKx2McZ4cJ6H5+4fffsbbJ5tV8OyEoytVFMtmdsAiiEEsDuNLwAcE/PLSfEfPGTbQABizWlQYZ5ANejbOWE7PXdxMhre3sBtZXb2uqylFlA0ua9U6iTu1LLiQBp+/Z+DbXNq6V2oRXRfffUBvBGLJVcKeWEEGPLCWwTPVcAPhImlJZKmRFQW07wnwKpLQYf72WzLCWtrd7WVpe1rN5V28tHrc7uSi37BKftgXaXos2LcwBpqgPfXZocyu91WAJWatlC3bkrJ6hcfkNuA5D/emypZb/dccsBfoNsU9UPyNtnaWO5raz2D5eXFA+Hp6f+Hcf4+/qlhj/qX4jQ7T8=);strokeColor=none;spacingTop=-3;spacingBottom=-3;spacingLeft=-3;spacingRight=-3;points=[];labelBackgroundColor=none;rounded=0;html=1;whiteSpace=wrap;" vertex="1" parent="CAdHEho802mkfugjiyNk-25">
          <mxGeometry x="14.06060606060606" y="14.545454545454545" width="28.12121212121212" height="29.09090909090909" as="geometry" />
        </mxCell>
        <mxCell id="CAdHEho802mkfugjiyNk-28" style="edgeStyle=orthogonalEdgeStyle;rounded=0;orthogonalLoop=1;jettySize=auto;html=1;entryX=0.016;entryY=0.504;entryDx=0;entryDy=0;entryPerimeter=0;curved=1;" edge="1" parent="CAdHEho802mkfugjiyNk-14" source="CAdHEho802mkfugjiyNk-22" target="CAdHEho802mkfugjiyNk-17">
          <mxGeometry relative="1" as="geometry" />
        </mxCell>
        <mxCell id="CAdHEho802mkfugjiyNk-29" value="Виртульная машина обслуживающая VPN сервер" style="text;html=1;align=center;verticalAlign=middle;whiteSpace=wrap;rounded=0;fontSize=17;fontFamily=Arial;fontStyle=1" vertex="1" parent="CAdHEho802mkfugjiyNk-14">
          <mxGeometry x="25" y="35" width="150" height="110" as="geometry" />
        </mxCell>
        <mxCell id="CAdHEho802mkfugjiyNk-30" value="Managed service for MySQL" style="text;html=1;align=center;verticalAlign=middle;whiteSpace=wrap;rounded=0;fontSize=17;fontFamily=Arial;fontStyle=1" vertex="1" parent="CAdHEho802mkfugjiyNk-14">
          <mxGeometry x="30" y="285" width="140" height="70" as="geometry" />
        </mxCell>
        <mxCell id="CAdHEho802mkfugjiyNk-31" value="CRM" style="text;html=1;align=center;verticalAlign=middle;whiteSpace=wrap;rounded=0;fontSize=17;fontFamily=Arial;fontStyle=1" vertex="1" parent="CAdHEho802mkfugjiyNk-14">
          <mxGeometry x="360" y="153" width="60" height="30" as="geometry" />
        </mxCell>
        <mxCell id="CAdHEho802mkfugjiyNk-32" style="edgeStyle=orthogonalEdgeStyle;rounded=0;orthogonalLoop=1;jettySize=auto;html=1;" edge="1" parent="CAdHEho802mkfugjiyNk-14" source="CAdHEho802mkfugjiyNk-17" target="CAdHEho802mkfugjiyNk-26">
          <mxGeometry relative="1" as="geometry" />
        </mxCell>
        <mxCell id="CAdHEho802mkfugjiyNk-33" style="edgeStyle=orthogonalEdgeStyle;rounded=0;orthogonalLoop=1;jettySize=auto;html=1;" edge="1" parent="CAdHEho802mkfugjiyNk-14" source="CAdHEho802mkfugjiyNk-34" target="CAdHEho802mkfugjiyNk-26">
          <mxGeometry relative="1" as="geometry" />
        </mxCell>
        <mxCell id="CAdHEho802mkfugjiyNk-34" style="vsdxID=5;fillColor=none;gradientColor=none;strokeColor=none;spacingTop=-3;spacingBottom=-3;spacingLeft=-3;spacingRight=-3;points=[];labelBackgroundColor=none;rounded=0;html=1;whiteSpace=wrap;" vertex="1" parent="CAdHEho802mkfugjiyNk-14">
          <mxGeometry x="180" y="180" width="60" height="60" as="geometry" />
        </mxCell>
        <mxCell id="CAdHEho802mkfugjiyNk-35" style="vsdxID=6;fillColor=#5282ff;gradientColor=none;shape=stencil(lZJBDoIwEEVP0y1pp5Di0qDeg0iRRgRSQOH2UgYCLRKV1Uw7f3h8PuFRncWVJEDrRpd3+VJJkxF+IgCqyKRWzVARfiY8Skstb7psiwT7KjaTpnqUT7OhQ11AjQRojy12F5y8thpHGV4K4QUHwUIRTBq2FtEOsGV03jkdAHg+BRGy4W3j408C7gq4BTVi0OMHkkWxgzazbJBdxo47PjhM+wyrr7JZlt1g+dPvMM0I/5rgWLDr8vYv2DxfnHAxclX8mJ+hWGKXqjzH1K7v3ZgORxhxfn4D);strokeColor=none;spacingTop=-3;spacingBottom=-3;spacingLeft=-3;spacingRight=-3;points=[];labelBackgroundColor=none;rounded=0;html=1;whiteSpace=wrap;" vertex="1" parent="CAdHEho802mkfugjiyNk-34">
          <mxGeometry width="60" height="60" as="geometry" />
        </mxCell>
        <mxCell id="CAdHEho802mkfugjiyNk-36" style="vsdxID=7;fillColor=#FFFFFF;gradientColor=none;shape=stencil(pVXbbtswDP0avwqkKInS49C1/1G06WIsSwo33dq/HxX5RtlxFwwIAl14ZB2eQ6qhu7f94+uusfB27k4/d3/a5/O+oe+Nte1xv+vas4waum/o7uXU7X50p/fjc5m/PubIPPp1+p1P+Cg4F4xNGWXhs6ykZJK9rDwUwKE9zgBk2Kp4jgbCPP7pvStfwBKAJnD0jM5e/gEGfL/PbAApACfnIHHZ/LBlE/rYfsrOuOBCTHIiAPWxpGP7KVtDPF0Mvi24gCJiowm4RQT0vSXeeuIoOfEuSd6qmxugibVNqJlYNgkkiglDSvKryRi0mo8gvNvkI2I6UpxcMtY1V8XMAK1mVj9tJUEgxF5nIoMYgCMTkAOuNMwQm/o8xKDzkLHOo3NEMfmIOgtze9KqP9fTcJun/wGgq8aT8awACHD9/GX4F7rI58c8rYq/1CXf2E9uq6zKJsaEGDigl7uiFugiehiwcXDyaFUxugsEmDCKyABOizRwn5yqK2lFogmyWqsrTQSq6lvvBAOhaGhWfFUPkX5jpd14JAHzWLeDv5aWyy1uu5OIwozNDZb7bwdV4VVXH6t4NByZiNfPd4O7Rr9Z428pGDSg4hdtQxQZDTZS0Y11UM/rF0OrN8TSlPiqT+qrrIiVvFinZuvSBt2b0/k1QAbTm/zSHg7lSZ/v12+4LJX3n+7/Ag==);strokeColor=none;spacingTop=-3;spacingBottom=-3;spacingLeft=-3;spacingRight=-3;points=[];labelBackgroundColor=none;rounded=0;html=1;whiteSpace=wrap;" vertex="1" parent="CAdHEho802mkfugjiyNk-34">
          <mxGeometry x="16.363636363636363" y="14.545454545454545" width="25.454545454545453" height="29.09090909090909" as="geometry" />
        </mxCell>
        <mxCell id="CAdHEho802mkfugjiyNk-37" value="Виртульная машина-хост" style="text;html=1;align=center;verticalAlign=middle;whiteSpace=wrap;rounded=0;fontSize=17;fontFamily=Arial;fontStyle=1" vertex="1" parent="CAdHEho802mkfugjiyNk-14">
          <mxGeometry x="45" y="180" width="110" height="60" as="geometry" />
        </mxCell>
        <mxCell id="CAdHEho802mkfugjiyNk-38" value="&lt;div style=&quot;font-size: 1px&quot;&gt;&lt;font style=&quot;font-size:22.58px;font-family:Arial;color:#000000;direction:ltr;letter-spacing:0px;line-height:120%;opacity:1&quot;&gt;Virtual Private Cloud&lt;br&gt;&lt;/font&gt;&lt;/div&gt;" style="verticalAlign=middle;align=center;overflow=width;vsdxID=7;fillColor=none;gradientColor=none;shape=stencil(nZBLDoAgDERP0z3SIyjew0SURgSD+Lu9kMZoXLhwN9O+tukAlrNpJg1SzDH4QW/URgNYgZTkjA4UkwJUgGXng+6DX1zLfmoymdXo17xh5zmRJ6Q42BWCfc2oJfdAr+Yv+AP9Cb7OJ3H/2JG1HNGz/84klThPVCc=);strokeColor=none;points=[];labelBackgroundColor=none;rounded=0;html=1;whiteSpace=wrap;fontStyle=1" vertex="1" parent="CAdHEho802mkfugjiyNk-14">
          <mxGeometry x="230" y="396" width="230" height="28" as="geometry" />
        </mxCell>
        <mxCell id="CAdHEho802mkfugjiyNk-39" style="edgeStyle=orthogonalEdgeStyle;rounded=0;orthogonalLoop=1;jettySize=auto;html=1;entryX=1;entryY=0.5;entryDx=0;entryDy=0;curved=1;" edge="1" parent="CAdHEho802mkfugjiyNk-14" source="CAdHEho802mkfugjiyNk-40" target="CAdHEho802mkfugjiyNk-44">
          <mxGeometry relative="1" as="geometry">
            <Array as="points">
              <mxPoint x="470" y="240" />
              <mxPoint x="580" y="240" />
              <mxPoint x="580" y="115" />
            </Array>
          </mxGeometry>
        </mxCell>
        <mxCell id="CAdHEho802mkfugjiyNk-40" value="" style="shape=image;verticalLabelPosition=bottom;verticalAlign=top;imageAspect=0;aspect=fixed;image=data:image/svg+xml,PHN2ZyB4bWxucz0iaHR0cDovL3d3dy53My5vcmcvMjAwMC9zdmciIHdpZHRoPSIzMiIgaGVpZ2h0PSIzMiIgdmlld0JveD0iMCAwIDMyIDMyIiBmaWxsPSJub25lIj4mI3hhOzxwYXRoIGQ9Ik0wIDE2QzAgNy4xNjM0NCA3LjE2MzQ0IDAgMTYgMFYwQzI0LjgzNjYgMCAzMiA3LjE2MzQ0IDMyIDE2VjE2QzMyIDI0LjgzNjYgMjQuODM2NiAzMiAxNiAzMlYzMkM3LjE2MzQ0IDMyIDAgMjQuODM2NiAwIDE2VjE2WiIgZmlsbD0iIzUyODJGRiIvPiYjeGE7PHBhdGggZmlsbC1ydWxlPSJldmVub2RkIiBjbGlwLXJ1bGU9ImV2ZW5vZGQiIGQ9Ik0yMiA4QzIyIDcuNCAyMS42IDcgMjEgN0gxMUMxMC40IDcgMTAgNy40IDEwIDhWMTBIMjJWOFpNMjMgMTJDMjMgMTEuNCAyMi42IDExIDIyIDExSDEwQzkuNCAxMSA5IDExLjQgOSAxMlYxNEgyM1YxMlpNOSAxNUgyM0MyMy41IDE1IDI0IDE1LjQgMjQgMTZWMjJDMjQgMjIuNiAyMy42IDIzIDIzIDIzSDlDOC40IDIzIDggMjIuNiA4IDIyVjE2QzggMTUuNCA4LjQgMTUgOSAxNVpNMTQgMjBIMThDMTguNSAyMCAxOSAxOS41IDE5IDE5QzE5IDE4LjQgMTguNiAxOCAxOCAxOEgxNEMxMy40IDE4IDEzIDE4LjQgMTMgMTlDMTMgMTkuNiAxMy40IDIwIDE0IDIwWiIgZmlsbD0id2hpdGUiLz4mI3hhOzwvc3ZnPg==;" vertex="1" parent="CAdHEho802mkfugjiyNk-14">
          <mxGeometry x="440" y="290" width="60" height="60" as="geometry" />
        </mxCell>
        <mxCell id="CAdHEho802mkfugjiyNk-41" value="Хранилище Object Storage c статическими файлами" style="text;html=1;align=center;verticalAlign=middle;whiteSpace=wrap;rounded=0;fontSize=17;fontFamily=Arial;fontStyle=1" vertex="1" parent="CAdHEho802mkfugjiyNk-14">
          <mxGeometry x="510" y="272.5" width="140" height="95" as="geometry" />
        </mxCell>
        <mxCell id="CAdHEho802mkfugjiyNk-42" style="edgeStyle=orthogonalEdgeStyle;rounded=0;orthogonalLoop=1;jettySize=auto;html=1;entryX=0.5;entryY=1;entryDx=0;entryDy=0;entryPerimeter=0;curved=1;" edge="1" parent="CAdHEho802mkfugjiyNk-14" source="CAdHEho802mkfugjiyNk-40" target="CAdHEho802mkfugjiyNk-26">
          <mxGeometry relative="1" as="geometry" />
        </mxCell>
        <mxCell id="CAdHEho802mkfugjiyNk-43" style="edgeStyle=orthogonalEdgeStyle;rounded=0;orthogonalLoop=1;jettySize=auto;html=1;entryX=0.5;entryY=0;entryDx=0;entryDy=0;elbow=vertical;curved=1;" edge="1" parent="CAdHEho802mkfugjiyNk-14" source="CAdHEho802mkfugjiyNk-44" target="CAdHEho802mkfugjiyNk-20">
          <mxGeometry relative="1" as="geometry">
            <Array as="points">
              <mxPoint x="472" y="115" />
              <mxPoint x="472" y="270" />
              <mxPoint x="210" y="270" />
            </Array>
          </mxGeometry>
        </mxCell>
        <mxCell id="CAdHEho802mkfugjiyNk-44" value="" style="shape=image;verticalLabelPosition=bottom;verticalAlign=top;imageAspect=0;aspect=fixed;image=data:image/svg+xml,PHN2ZyB4bWxucz0iaHR0cDovL3d3dy53My5vcmcvMjAwMC9zdmciIHdpZHRoPSIzMiIgaGVpZ2h0PSIzMiIgdmlld0JveD0iMCAwIDMyIDMyIiBmaWxsPSJub25lIj4mI3hhOzxwYXRoIGQ9Ik0wIDE2QzAgNy4xNjM0NCA3LjE2MzQ0IDAgMTYgMFYwQzI0LjgzNjYgMCAzMiA3LjE2MzQ0IDMyIDE2VjE2QzMyIDI0LjgzNjYgMjQuODM2NiAzMiAxNiAzMlYzMkM3LjE2MzQ0IDMyIDAgMjQuODM2NiAwIDE2VjE2WiIgZmlsbD0iIzUyODJGRiIvPiYjeGE7PHBhdGggZD0iTTE1LjQxMiAyMS4zN0MxNC45MDQgMjEuNzkgMTQuMjczIDIyIDEzLjUxOSAyMkMxMy4xMjUgMjIgMTIuODQ1IDIxLjk2OSAxMi42NzkgMjEuOTA4VjIwLjQ0OUMxMi43NDcgMjAuNDY2IDEyLjg3IDIwLjQ4NiAxMy4wNDYgMjAuNTA4QzEzLjIyMiAyMC41MyAxMy4zNzkgMjAuNTQyIDEzLjUxOSAyMC41NDJDMTMuODg4IDIwLjU0MiAxNC4xNTUgMjAuNDM4IDE0LjMyMiAyMC4yMzJDMTQuNDg4IDIwLjAyNiAxNC42MDEgMTkuNzE3IDE0LjY2NCAxOS4zMDVMMTUuMzk5IDE0Ljk4MUgxNC40MjZMMTQuNzAyIDEzLjYxNUgxNS42MzZMMTUuNzkzIDEyLjY2OEMxNS45NDIgMTEuNzMgMTYuMjcxIDExLjA1MSAxNi43NzggMTAuNjMxQzE3LjI4NyAxMC4yMSAxNy45MzEgMTAgMTguNzExIDEwQzE4Ljg5NiAxMCAxOS4wNTUgMTAuMDA5IDE5LjE5IDEwLjAyNkMxOS4zMjcgMTAuMDQ0IDE5LjQyOSAxMC4wNjEgMTkuNDk5IDEwLjA3OVYxMS41NjRDMTkuNDMgMTEuNTM4IDE5LjMwNyAxMS41MTUgMTkuMTMyIDExLjQ5OUMxOC45NTYgMTEuNDgxIDE4Ljc5OCAxMS40NzIgMTguNjU4IDExLjQ3MkMxOC4yOSAxMS40NzIgMTguMDI1IDExLjU3MSAxNy44NjIgMTEuNzY4QzE3LjcgMTEuOTY1IDE3LjU4NSAxMi4yNjYgMTcuNTE0IDEyLjY2OEwxNy4zNTYgMTMuNjE1SDE4LjkzNEwxOC42NTggMTQuOTgxSDE3LjEyTDE2LjM5NyAxOS4zMzJDMTYuMjUgMjAuMjcgMTUuOTE5IDIwLjk0OSAxNS40MTIgMjEuMzdaTTEyLjI4NyAyNC45OEMxMi40NzUgMjQuOTY1IDEyLjY4MiAyNC45MzcgMTIuOTExIDI0Ljg5NkwxMi45OTIgMjQuODgyVjIzLjU5TDEyLjg3NCAyMy42MTNDMTIuNDgyIDIzLjY5MSAxMi4xNDcgMjMuNzMgMTEuODgyIDIzLjczQzExLjI0MyAyMy43MyAxMC44MDIgMjMuNTggMTAuNTcgMjMuMjg1QzEwLjMzNCAyMi45NzggMTAuMjE1IDIyLjU5IDEwLjIxNSAyMi4xMjZDMTAuMjE1IDIxLjgyMyAxMC4yMzcgMjEuNTM2IDEwLjI5IDIxLjIzMkwxMC41NjEgMTkuNjc4QzEwLjYwOCAxOS40MDMgMTAuNjMxIDE5LjA4NyAxMC42MzEgMTguNzQxQzEwLjYzMSAxOC40NTcgMTAuNjA0IDE4LjE3OSAxMC41NSAxNy45MThDMTAuNDkzIDE3LjY0OSAxMC4zODYgMTcuMzkyIDEwLjIyOCAxNy4xNTFDMTAuMDcxIDE2LjkxMyA5Ljg1NyAxNi42ODQgOS41OTIgMTYuNDc1QzkuMzc4IDE2LjMwNSA5LjEwOSAxNi4xNDkgOC43ODggMTYuMDA4QzkuMTA0IDE1Ljg3MSA5LjM3NyAxNS43MTMgOS42MDEgMTUuNTRDOS44NzIgMTUuMzI4IDEwLjA4NyAxNS4wOTMgMTAuMjQgMTQuODM4QzEwLjM4OSAxNC41ODkgMTAuNDkzIDE0LjMyMSAxMC41NSAxNC4wNDNDMTAuNjA0IDEzLjc3NCAxMC42MzEgMTMuNDk0IDEwLjYzMSAxMy4yMUMxMC42MzEgMTIuODc1IDEwLjYwOCAxMi41NjUgMTAuNTYxIDEyLjI4OUwxMC4yODMgMTAuNzEzQzEwLjIzNyAxMC40NDggMTAuMjE1IDEwLjE2NyAxMC4yMTUgOS44NzVDMTAuMjE1IDkuMzg3IDEwLjMzNyA4Ljk5IDEwLjU3OCA4LjY5N0MxMC44MTYgOC40MTIgMTEuMjYyIDguMjY3IDExLjkwMiA4LjI2N0MxMi4wNDQgOC4yNjcgMTIuMTk2IDguMjc2IDEyLjM1OCA4LjI5NkMxMi41MjEgOC4zMTYgMTIuOTkzIDguMzggMTIuOTkzIDguMzhWNy4xMUwxMi4yOSA3LjAyOUMxMi4wOTkgNy4wMSAxMS45MSA3IDExLjcyMyA3QzEwLjY3OSA3IDkuOTA0IDcuMjY1IDkuNDE4IDcuNzg1QzguOTMyIDguMzA1IDguNjg3IDguOTk2IDguNjg3IDkuODM3QzguNjg3IDEwLjE2OCA4LjcxNCAxMC40NzEgOC43NjcgMTAuNzRDOC44MiAxMS4wMTEgOC44NzYgMTEuMjggOC45MzYgMTEuNTQ2QzguOTk2IDExLjgxIDkuMDUyIDEyLjA4IDkuMTA1IDEyLjM1OEM5LjE1OCAxMi42MzEgOS4xODMgMTIuOTMyIDkuMTgzIDEzLjI1M0M5LjE4MyAxMy41MTkgOS4xNTggMTMuNzc2IDkuMTA2IDE0LjAxNUM5LjA1NSAxNC4yNDcgOC45NTggMTQuNDQ5IDguODA4IDE0LjYyOEM4LjY2IDE0LjgwOCA4LjQ0OCAxNC45NjIgOC4xNzcgMTUuMDg4QzcuOTA4IDE1LjIxNCA3LjU0MiAxNS4yOTggNy4wODkgMTUuMzM3TDcgMTUuMzQ0VjE2LjY1N0w3LjA5MSAxNi42NjRDNy41NjYgMTYuNzAzIDcuOTQ0IDE2Ljc5MyA4LjIxNSAxNi45MzJDOC40ODYgMTcuMDcxIDguNjk0IDE3LjIzOSA4LjgzNiAxNy40MjhDOC45NzggMTcuNjIgOS4wNzEgMTcuODQ0IDkuMTE1IDE4LjA5QzkuMTYxIDE4LjM1NCA5LjE4MyAxOC42MjkgOS4xODMgMTguOTA3QzkuMTgzIDE5LjIxNSA5LjE1OCAxOS41MDIgOS4xMDYgMTkuNzYxQzkuMDUyIDIwLjAyMyA4Ljk5NiAyMC4yODQgOC45MzYgMjAuNTQyQzguODc2IDIwLjgwMiA4LjgyIDIxLjA2MyA4Ljc2OCAyMS4zMjhDOC43MTMgMjEuNTk2IDguNjg3IDIxLjg4MSA4LjY4NyAyMi4yQzguNjg3IDIzLjAzMiA4LjkyOCAyMy43MTIgOS40MDcgMjQuMjIzQzkuODg3IDI0LjczNyAxMC42NjcgMjQuOTk4IDExLjcyMyAyNC45OThDMTEuOTA5IDI1IDEyLjA5NyAyNC45OTMgMTIuMjg3IDI0Ljk4Wk0yMC4yNzYgMjVDMjEuMzMzIDI1IDIyLjExMiAyNC43MzggMjIuNTkyIDI0LjIyNUMyMy4wNzEgMjMuNzEzIDIzLjMxMiAyMy4wMzQgMjMuMzEyIDIyLjIwMkMyMy4zMTIgMjEuODgzIDIzLjI4NiAyMS41OTggMjMuMjMxIDIxLjMzQzIzLjE3OSAyMS4wNjUgMjMuMTIzIDIwLjgwNCAyMy4wNjMgMjAuNTQ0QzIzLjAwMyAyMC4yODYgMjIuOTQ3IDIwLjAyNCAyMi44OTMgMTkuNzYzQzIyLjg0MSAxOS41MDMgMjIuODE2IDE5LjIxNiAyMi44MTYgMTguOTA5QzIyLjgxNiAxOC42MzEgMjIuODM4IDE4LjM1NSAyMi44ODQgMTguMDkyQzIyLjkyOCAxNy44NDYgMjMuMDIyIDE3LjYyMiAyMy4xNjMgMTcuNDNDMjMuMzA1IDE3LjI0MSAyMy41MTQgMTcuMDczIDIzLjc4NCAxNi45MzRDMjQuMDU1IDE2Ljc5NSAyNC40MzMgMTYuNzA1IDI0LjkwOCAxNi42NjZMMjUgMTYuNjU3VjE1LjM0NEwyNC45MSAxNS4zMzZDMjQuNDU3IDE1LjI5NyAyNC4wOTEgMTUuMjEzIDIzLjgyMiAxNS4wODdDMjMuNTUxIDE0Ljk2MSAyMy4zNCAxNC44MDcgMjMuMTkxIDE0LjYyN0MyMy4wNDIgMTQuNDQ3IDIyLjk0NCAxNC4yNDYgMjIuODkzIDE0LjAxNEMyMi44NDEgMTMuNzc2IDIyLjgxNiAxMy41MTggMjIuODE2IDEzLjI1MkMyMi44MTYgMTIuOTMyIDIyLjg0MSAxMi42MzEgMjIuODk0IDEyLjM1N0MyMi45NDcgMTIuMDggMjMuMDAzIDExLjgwOSAyMy4wNjMgMTEuNTQ1QzIzLjEyMyAxMS4yNzkgMjMuMTc5IDExLjAxMSAyMy4yMzIgMTAuNzM5QzIzLjI4NSAxMC40NjkgMjMuMzEyIDEwLjE2NyAyMy4zMTIgOS44MzZDMjMuMzEyIDguOTk1IDIzLjA2NyA4LjMwNCAyMi41ODEgNy43ODRDMjIuMDk1IDcuMjY1IDIxLjMyIDcgMjAuMjc2IDdDMjAuMDg5IDcgMTkuOSA3LjAxIDE5LjcxIDcuMDI5TDE5LjAwNyA3LjExVjguMzgyQzE5LjAwNyA4LjM4MiAxOS40NzkgOC4zMTggMTkuNjQyIDguMjk4QzE5LjgwNCA4LjI3NyAxOS45NTYgOC4yNjkgMjAuMDk4IDguMjY5QzIwLjczOSA4LjI2OSAyMS4xODQgOC40MTQgMjEuNDIyIDguNjk5QzIxLjY2MyA4Ljk5MiAyMS43ODUgOS4zODggMjEuNzg1IDkuODc3QzIxLjc4NSAxMC4xNjkgMjEuNzYzIDEwLjQ1IDIxLjcxNyAxMC43MTVMMjEuNDM5IDEyLjI5MUMyMS4zOTIgMTIuNTY3IDIxLjM2OSAxMi44NzcgMjEuMzY5IDEzLjIxMkMyMS4zNjkgMTMuNDk2IDIxLjM5NiAxMy43NzYgMjEuNDUgMTQuMDQ1QzIxLjUwNyAxNC4zMjMgMjEuNjEgMTQuNTkxIDIxLjc2IDE0Ljg0QzIxLjkxMiAxNS4wOTUgMjIuMTI3IDE1LjMzIDIyLjM5OSAxNS41NDJDMjIuNjI0IDE1LjcxNSAyMi44OTYgMTUuODczIDIzLjIxMiAxNi4wMUMyMi44OTIgMTYuMTUxIDIyLjYyMiAxNi4zMDcgMjIuNDA4IDE2LjQ3N0MyMi4xNDMgMTYuNjg2IDIxLjkyOSAxNi45MTUgMjEuNzcyIDE3LjE1M0MyMS42MTQgMTcuMzkzIDIxLjUwNiAxNy42NTEgMjEuNDUgMTcuOTJDMjEuMzk2IDE4LjE4MiAyMS4zNjkgMTguNDU5IDIxLjM2OSAxOC43NDNDMjEuMzY5IDE5LjA4OSAyMS4zOTIgMTkuNDA0IDIxLjQzOSAxOS42OEwyMS43MSAyMS4yMzRDMjEuNzYzIDIxLjUzOCAyMS43ODUgMjEuODI1IDIxLjc4NSAyMi4xMjhDMjEuNzg1IDIyLjU5MiAyMS42NjYgMjIuOTgxIDIxLjQzIDIzLjI4N0MyMS4xOTggMjMuNTgyIDIwLjc1NiAyMy43MzIgMjAuMTE4IDIzLjczMkMxOS44NTIgMjMuNzMyIDE5LjUxNyAyMy42OTMgMTkuMTI2IDIzLjYxNUwxOS4wMDggMjMuNTkyVjI0Ljg4NUwxOS4wODkgMjQuODk5QzE5LjMxOCAyNC45NCAxOS41MjYgMjQuOTY4IDE5LjcxMyAyNC45ODNDMTkuOTAyIDI0Ljk5MyAyMC4wOSAyNSAyMC4yNzYgMjVaIiBmaWxsPSJ3aGl0ZSIvPiYjeGE7PC9zdmc+;" vertex="1" parent="CAdHEho802mkfugjiyNk-14">
          <mxGeometry x="500" y="85" width="60" height="60" as="geometry" />
        </mxCell>
        <mxCell id="CAdHEho802mkfugjiyNk-45" style="edgeStyle=orthogonalEdgeStyle;rounded=0;orthogonalLoop=1;jettySize=auto;html=1;entryX=0.5;entryY=0;entryDx=0;entryDy=0;curved=1;" edge="1" parent="CAdHEho802mkfugjiyNk-14" source="CAdHEho802mkfugjiyNk-26" target="CAdHEho802mkfugjiyNk-44">
          <mxGeometry relative="1" as="geometry" />
        </mxCell>
        <mxCell id="CAdHEho802mkfugjiyNk-46" value="&lt;span style=&quot;font-size: 17px;&quot;&gt;Cloud Function&lt;/span&gt;" style="text;html=1;align=center;verticalAlign=middle;resizable=0;points=[];autosize=1;strokeColor=none;fillColor=none;fontSize=18;fontStyle=1" vertex="1" parent="CAdHEho802mkfugjiyNk-14">
          <mxGeometry x="542.9966334803014" y="48" width="140" height="40" as="geometry" />
        </mxCell>
        <mxCell id="CAdHEho802mkfugjiyNk-47" value="&lt;font style=&quot;font-size: 17px;&quot;&gt;Статистический ip&lt;/font&gt;" style="text;html=1;align=center;verticalAlign=middle;resizable=0;points=[];autosize=1;strokeColor=none;fillColor=none;fontSize=18;fontStyle=1" vertex="1" parent="CAdHEho802mkfugjiyNk-14">
          <mxGeometry x="99.9966334803014" y="8" width="170" height="40" as="geometry" />
        </mxCell>
        <mxCell id="CAdHEho802mkfugjiyNk-48" value="&lt;div style=&quot;font-size: 1px&quot;&gt;&lt;font style=&quot;font-size:22.58px;font-family:Arial;color:#000000;direction:ltr;letter-spacing:0px;line-height:120%;opacity:1&quot;&gt;Virtual Private Cloud&lt;br&gt;&lt;/font&gt;&lt;/div&gt;" style="verticalAlign=middle;align=center;overflow=width;vsdxID=7;fillColor=none;gradientColor=none;shape=stencil(nZBLDoAgDERP0z3SIyjew0SURgSD+Lu9kMZoXLhwN9O+tukAlrNpJg1SzDH4QW/URgNYgZTkjA4UkwJUgGXng+6DX1zLfmoymdXo17xh5zmRJ6Q42BWCfc2oJfdAr+Yv+AP9Cb7OJ3H/2JG1HNGz/84klThPVCc=);strokeColor=none;points=[];labelBackgroundColor=none;rounded=0;html=1;whiteSpace=wrap;fontStyle=1" vertex="1" parent="1">
          <mxGeometry x="769" y="130" width="252" height="28" as="geometry" />
        </mxCell>
        <mxCell id="CAdHEho802mkfugjiyNk-49" value="" style="shape=image;verticalLabelPosition=bottom;verticalAlign=top;imageAspect=0;aspect=fixed;image=data:image/svg+xml,PHN2ZyB4bWxucz0iaHR0cDovL3d3dy53My5vcmcvMjAwMC9zdmciIHdpZHRoPSIzMiIgaGVpZ2h0PSIzMiIgdmlld0JveD0iMCAwIDMyIDMyIiBmaWxsPSJub25lIj4mI3hhOzxwYXRoIGQ9Ik0wIDE2QzAgNy4xNjM0NCA3LjE2MzQ0IDAgMTYgMFYwQzI0LjgzNjYgMCAzMiA3LjE2MzQ0IDMyIDE2VjE2QzMyIDI0LjgzNjYgMjQuODM2NiAzMiAxNiAzMlYzMkM3LjE2MzQ0IDMyIDAgMjQuODM2NiAwIDE2VjE2WiIgZmlsbD0iIzUyODJGRiIvPiYjeGE7PHBhdGggZD0iTTI0IDExQzI0IDkuOSAyMy4xIDkgMjIgOUMyMC45IDkgMjAgOS45IDIwIDExQzIwIDExLjcgMjAuNCAxMi40IDIxIDEyLjdWMTVIMTdWMTIuN0MxNy42IDEyLjMgMTggMTEuNyAxOCAxMUMxOCA5LjkgMTcuMSA5IDE2IDlDMTQuOSA5IDE0IDkuOSAxNCAxMUMxNCAxMS43IDE0LjQgMTIuNCAxNSAxMi43VjE1SDExVjEyLjdDMTEuNiAxMi4zIDEyIDExLjcgMTIgMTFDMTIgOS45IDExLjEgOSAxMCA5QzguOSA5IDggOS45IDggMTFDOCAxMS43IDguNCAxMi40IDkgMTIuN1YxNUM5IDE2LjEgOS45IDE3IDExIDE3SDEyVjE5LjNDMTEuNCAxOS43IDExIDIwLjMgMTEgMjFDMTEgMjIuMSAxMS45IDIzIDEzIDIzQzE0LjEgMjMgMTUgMjIuMSAxNSAyMUMxNSAyMC4zIDE0LjYgMTkuNiAxNCAxOS4zVjE3SDE4VjE5LjNDMTcuNCAxOS43IDE3IDIwLjMgMTcgMjFDMTcgMjIuMSAxNy45IDIzIDE5IDIzQzIwLjEgMjMgMjEgMjIuMSAyMSAyMUMyMSAyMC4zIDIwLjYgMTkuNiAyMCAxOS4zVjE3SDIxQzIyLjEgMTcgMjMgMTYuMSAyMyAxNVYxMi43QzIzLjYgMTIuNCAyNCAxMS43IDI0IDExWiIgZmlsbD0id2hpdGUiLz4mI3hhOzwvc3ZnPg==;" vertex="1" parent="1">
          <mxGeometry x="1021" y="114" width="60" height="60" as="geometry" />
        </mxCell>
        <mxCell id="CAdHEho802mkfugjiyNk-50" style="vsdxID=5;fillColor=none;gradientColor=none;strokeColor=none;spacingTop=-3;spacingBottom=-3;spacingLeft=-3;spacingRight=-3;points=[];labelBackgroundColor=none;rounded=0;html=1;whiteSpace=wrap;" vertex="1" parent="1">
          <mxGeometry x="865" y="280" width="60" height="60" as="geometry" />
        </mxCell>
        <mxCell id="CAdHEho802mkfugjiyNk-51" style="vsdxID=6;fillColor=#5282ff;gradientColor=none;shape=stencil(lZJBDoIwEEVP0y1pp5Di0qDeg0iRRgRSQOH2UgYCLRKV1Uw7f3h8PuFRncWVJEDrRpd3+VJJkxF+IgCqyKRWzVARfiY8Skstb7psiwT7KjaTpnqUT7OhQ11AjQRojy12F5y8thpHGV4K4QUHwUIRTBq2FtEOsGV03jkdAHg+BRGy4W3j408C7gq4BTVi0OMHkkWxgzazbJBdxo47PjhM+wyrr7JZlt1g+dPvMM0I/5rgWLDr8vYv2DxfnHAxclX8mJ+hWGKXqjzH1K7v3ZgORxhxfn4D);strokeColor=none;spacingTop=-3;spacingBottom=-3;spacingLeft=-3;spacingRight=-3;points=[];labelBackgroundColor=none;rounded=0;html=1;whiteSpace=wrap;" vertex="1" parent="CAdHEho802mkfugjiyNk-50">
          <mxGeometry width="60" height="60" as="geometry" />
        </mxCell>
        <mxCell id="CAdHEho802mkfugjiyNk-52" style="vsdxID=7;fillColor=#FFFFFF;gradientColor=none;shape=stencil(pVXbbtswDP0avwqkKInS49C1/1G06WIsSwo33dq/HxX5RtlxFwwIAl14ZB2eQ6qhu7f94+uusfB27k4/d3/a5/O+oe+Nte1xv+vas4waum/o7uXU7X50p/fjc5m/PubIPPp1+p1P+Cg4F4xNGWXhs6ykZJK9rDwUwKE9zgBk2Kp4jgbCPP7pvStfwBKAJnD0jM5e/gEGfL/PbAApACfnIHHZ/LBlE/rYfsrOuOBCTHIiAPWxpGP7KVtDPF0Mvi24gCJiowm4RQT0vSXeeuIoOfEuSd6qmxugibVNqJlYNgkkiglDSvKryRi0mo8gvNvkI2I6UpxcMtY1V8XMAK1mVj9tJUEgxF5nIoMYgCMTkAOuNMwQm/o8xKDzkLHOo3NEMfmIOgtze9KqP9fTcJun/wGgq8aT8awACHD9/GX4F7rI58c8rYq/1CXf2E9uq6zKJsaEGDigl7uiFugiehiwcXDyaFUxugsEmDCKyABOizRwn5yqK2lFogmyWqsrTQSq6lvvBAOhaGhWfFUPkX5jpd14JAHzWLeDv5aWyy1uu5OIwozNDZb7bwdV4VVXH6t4NByZiNfPd4O7Rr9Z428pGDSg4hdtQxQZDTZS0Y11UM/rF0OrN8TSlPiqT+qrrIiVvFinZuvSBt2b0/k1QAbTm/zSHg7lSZ/v12+4LJX3n+7/Ag==);strokeColor=none;spacingTop=-3;spacingBottom=-3;spacingLeft=-3;spacingRight=-3;points=[];labelBackgroundColor=none;rounded=0;html=1;whiteSpace=wrap;" vertex="1" parent="CAdHEho802mkfugjiyNk-50">
          <mxGeometry x="16.363636363636363" y="14.545454545454545" width="25.454545454545453" height="29.09090909090909" as="geometry" />
        </mxCell>
        <mxCell id="CAdHEho802mkfugjiyNk-53" value="Личный ПК" style="text;html=1;align=center;verticalAlign=middle;whiteSpace=wrap;rounded=0;fontSize=17;fontFamily=Arial;fontStyle=1" vertex="1" parent="1">
          <mxGeometry x="326" y="490" width="80" height="50" as="geometry" />
        </mxCell>
        <mxCell id="CAdHEho802mkfugjiyNk-54" value="Работник предприятия" style="text;html=1;align=center;verticalAlign=middle;whiteSpace=wrap;rounded=0;fontSize=17;fontFamily=Arial;fontStyle=1" vertex="1" parent="1">
          <mxGeometry x="219.5" y="205" width="100" height="65" as="geometry" />
        </mxCell>
        <mxCell id="CAdHEho802mkfugjiyNk-55" value="Рабочая виртуальная машина" style="text;html=1;align=center;verticalAlign=middle;whiteSpace=wrap;rounded=0;fontSize=17;fontFamily=Arial;strokeWidth=1;fontStyle=1" vertex="1" parent="1">
          <mxGeometry x="842.5" y="200" width="105" height="70" as="geometry" />
        </mxCell>
        <mxCell id="CAdHEho802mkfugjiyNk-56" style="vsdxID=5;fillColor=none;gradientColor=none;strokeColor=none;spacingTop=-3;spacingBottom=-3;spacingLeft=-3;spacingRight=-3;points=[];labelBackgroundColor=none;rounded=0;html=1;whiteSpace=wrap;" vertex="1" parent="1">
          <mxGeometry x="336" y="550" width="60" height="60" as="geometry" />
        </mxCell>
        <mxCell id="CAdHEho802mkfugjiyNk-57" style="vsdxID=6;fillColor=#5282ff;gradientColor=none;shape=stencil(jZLRDoIwDEW/Zq9ka8XBo0H8DyIgiwhmgMLfyywGNiRhT+12253elGHUFMkzY8CbVtf37K3StmB4ZgCqKjKt2jFiGDOM8lpnN113VUr5MzFKEz3ql+nQU53PTQnwgVLKLqS8dpqkgh6l9PxQikD6U41YFvEeKBX813O6APAwXJ5Jj64eLaYvBT/9AZkrZrKjDbFideF6dAxwaLZ/H8c5cJCBAMeHuTdYxgywokRbsHdwZ+wtY2EL1ObassClKFW1c2PGYF60XJUl7eny3V3M8YqWGuMP);strokeColor=none;spacingTop=-3;spacingBottom=-3;spacingLeft=-3;spacingRight=-3;points=[];labelBackgroundColor=none;rounded=0;html=1;whiteSpace=wrap;" vertex="1" parent="CAdHEho802mkfugjiyNk-56">
          <mxGeometry width="60" height="60" as="geometry" />
        </mxCell>
        <mxCell id="CAdHEho802mkfugjiyNk-58" style="vsdxID=7;fillColor=#FFFFFF;gradientColor=none;shape=stencil(lVjRVtswDP2avurYkizJjzuM/QdnlNEzRjkFNvb3U0i6xk6axDyV1Ne+upKu3Ozo5vXx7mW/w/D6djr+3P853L897ujrDvHw/Lg/Hd78045ud3TzcDztf5yO78/3/f8vd93K7tOv4+9uh48eFw00dSgMf/snmUDl88m3HvB0eB4BkCFLEyBBiBNAGgO+v596TrFfQAHUmSnn4U8HfBxtEKOoppBQBjofOKCdoWX6H9bw2DJosKiE5thhxw8aMAqRhvXDI5MirPBljqhBSEEwlfwsQVRVyTkwcq7oGUgYYc70CCSHxGpoHnlFzyCnil4ErOmVwhsYFbpXkJlwPLVxEoyjUtaEwciwCiaUQagCZs0ZmVSEyiBCGYAiMC4GEEr2YLxEPpS0P2PRlIUligseuUqDK1qlIJR8R/oVEVyjmyPEsjPCEt8sEMi0UjuULGOoFL4aFtUAmpNthvYFMZuXKfELIC5lHS9hcl3rsyVFUxk317pECKX2q8XuECaZJMD7UL0PnQaz1dYi6F4WbWItCUiSG4+p+wud7e4ckaMst5uLuHHqyMfOBN3HhDm67IlqtTV0yk6874phnjtx5NA0Aiwq3oG4ZQ50CVkB1AoYj5p07P3KUZK5AhLL+E2Bc6y9NSf3Vk6Jk3n60Ko+7zBl+OcSv9ozCOXQLAAzLYNAM9bqvCxpQPZhl3KuYonsU1AmxXZFgDPz0TynWZnnwlm/BExuDanMZSrir24AEXKx2McZ4cJ6H5+4fffsbbJ5tV8OyEoytVFMtmdsAiiEEsDuNLwAcE/PLSfEfPGTbQABizWlQYZ5ANejbOWE7PXdxMhre3sBtZXb2uqylFlA0ua9U6iTu1LLiQBp+/Z+DbXNq6V2oRXRfffUBvBGLJVcKeWEEGPLCWwTPVcAPhImlJZKmRFQW07wnwKpLQYf72WzLCWtrd7WVpe1rN5V28tHrc7uSi37BKftgXaXos2LcwBpqgPfXZocyu91WAJWatlC3bkrJ6hcfkNuA5D/emypZb/dccsBfoNsU9UPyNtnaWO5raz2D5eXFA+Hp6f+Hcf4+/qlhj/qX4jQ7T8=);strokeColor=none;spacingTop=-3;spacingBottom=-3;spacingLeft=-3;spacingRight=-3;points=[];labelBackgroundColor=none;rounded=0;html=1;whiteSpace=wrap;" vertex="1" parent="CAdHEho802mkfugjiyNk-56">
          <mxGeometry x="14.545454545454545" y="14.545454545454545" width="29.09090909090909" height="29.09090909090909" as="geometry" />
        </mxCell>
        <mxCell id="CAdHEho802mkfugjiyNk-59" style="vsdxID=5;fillColor=none;gradientColor=none;strokeColor=none;spacingTop=-3;spacingBottom=-3;spacingLeft=-3;spacingRight=-3;points=[];labelBackgroundColor=none;rounded=0;html=1;whiteSpace=wrap;" vertex="1" parent="1">
          <mxGeometry x="235.5" y="550" width="59" height="60" as="geometry" />
        </mxCell>
        <mxCell id="CAdHEho802mkfugjiyNk-60" style="vsdxID=6;fillColor=#5282ff;gradientColor=none;shape=stencil(jZLRDoIwDEW/Zq9ka8XBo0H8DyIgiwhmgMLfyywGNiRhT+12253elGHUFMkzY8CbVtf37K3StmB4ZgCqKjKt2jFiGDOM8lpnN113VUr5MzFKEz3ql+nQU53PTQnwgVLKLqS8dpqkgh6l9PxQikD6U41YFvEeKBX813O6APAwXJ5Jj64eLaYvBT/9AZkrZrKjDbFideF6dAxwaLZ/H8c5cJCBAMeHuTdYxgywokRbsHdwZ+wtY2EL1ObassClKFW1c2PGYF60XJUl7eny3V3M8YqWGuMP);strokeColor=none;spacingTop=-3;spacingBottom=-3;spacingLeft=-3;spacingRight=-3;points=[];labelBackgroundColor=none;rounded=0;html=1;whiteSpace=wrap;" vertex="1" parent="CAdHEho802mkfugjiyNk-59">
          <mxGeometry width="59" height="60" as="geometry" />
        </mxCell>
        <mxCell id="CAdHEho802mkfugjiyNk-61" style="vsdxID=7;fillColor=#FFFFFF;gradientColor=none;shape=stencil(lZfdcttGDIWfRrc7wOL/spMm75FpnFpT184oTpu+fQ9NUTI3lGTHE4/M1ZLfAucA4E4+fL///O1u1+n78+Hpr7t/91+e73fy+673/eP93WH/jE87+biTD1+fDnd/Hp5+PH6Z//72efrm9Onvp3+mO/yc92lTnTZ1+m++UNJEXq58mr//x4/DvIHnL/QmqWw9ubPnsvm4WL2ZegaJcpTUvPqzz6vcuGt6iJFpynHrcbG4Zef0ykzHLY5bZV6l5sujjleyWtUZlH7bYKU1XVqzKnH8Kicd4bokOZuWqPkaLnFq8nSp6VxrtFchXNDoBhdrC0S6jDltzRjaELxKiUAwbM3Ys2k5KEyj9yGAwQDB/YJxW+c1pODofU3p0SRugEq0REKkI9PZB1S35uZpgh87iuaEip2R5tBKOvVcozpEZqERVKnLOU6o0SwGVG6ht1HFcXDqSiY5oFJj1wpjEqZBluJNqojKjGIJ3IJq2XA4wnrZL6oUbclrVPN2zNplVKQxXa2TlwgPFjLC8ZHlAqcsOjwJQJp2hYuMcdhaoyo3xx5J2CtlQH3ZuUbFJem3UDcfeJYxRAHBBSyVnWiUKzTALBBrwT2xpkWWe6rCpNYDjtRfQisDr7RjOK6IINtZrjrgUpvimoH/hlRTDhVArYEoDNXNRYfg0hrPaM12y/E2Ob5LJ02mGIxEaw6onSDkEBgZih04Lh1isQpMWe+OW/TWC4mEHVVsMM+lTC2J9GaJ3cQvBXSNe1Ei8mrz+2W5/Uy+5oNzlWQFESq58uj1TeudA8tDYN/idZQ6JyAaoav56PV8aZeK4sKxVJKTDDp6nhWrINc5uGe7oMlpp8oa9S0VFNumhMHnMHvFGnW7ZJ9RmWA4LuuDALabxEKF3jnE9C1dCTnEuSFUKurU16AvbXAyGcMe7jUUe8wAPcIDvTfr1NEWcWw23yNZWTuNBW9t9JUtvIiFMimGejQNFSwokIV5o4ZKz0Rrtu3hZWGrJWrvmo+Al5AQ6qWCYQjkhYFsGdei+TTvMezdx3FpGgNNuCOYFrRk6Eogh6lzEzYVExo5OmYSadUQTQAhmoG5ErGrPuC6t4JpACNZo+9rCtXrf9dr/ZKaK21IGkGCBPumjQ3+0tOWxFuDPlGcEDqJQaAXDnlxEt2K68P+8V0vAPhwfnv4un94mF8+Xq+Pbxu4NL+pyMf/AQ==);strokeColor=none;spacingTop=-3;spacingBottom=-3;spacingLeft=-3;spacingRight=-3;points=[];labelBackgroundColor=none;rounded=0;html=1;whiteSpace=wrap;" vertex="1" parent="CAdHEho802mkfugjiyNk-59">
          <mxGeometry x="16.09090909090909" y="14.545454545454545" width="25.03030303030303" height="29.09090909090909" as="geometry" />
        </mxCell>
        <mxCell id="CAdHEho802mkfugjiyNk-62" value="Работник предприятия&amp;nbsp;" style="text;html=1;align=center;verticalAlign=middle;whiteSpace=wrap;rounded=0;fontSize=17;fontFamily=Arial;fontStyle=1" vertex="1" parent="1">
          <mxGeometry x="210" y="480" width="105" height="60" as="geometry" />
        </mxCell>
        <mxCell id="CAdHEho802mkfugjiyNk-63" style="edgeStyle=orthogonalEdgeStyle;rounded=0;orthogonalLoop=1;jettySize=auto;html=1;" edge="1" parent="1" source="CAdHEho802mkfugjiyNk-60" target="CAdHEho802mkfugjiyNk-57">
          <mxGeometry relative="1" as="geometry" />
        </mxCell>
        <mxCell id="CAdHEho802mkfugjiyNk-64" style="edgeStyle=orthogonalEdgeStyle;rounded=0;orthogonalLoop=1;jettySize=auto;html=1;" edge="1" parent="1" source="CAdHEho802mkfugjiyNk-51" target="CAdHEho802mkfugjiyNk-17">
          <mxGeometry relative="1" as="geometry" />
        </mxCell>
        <mxCell id="CAdHEho802mkfugjiyNk-65" style="edgeStyle=orthogonalEdgeStyle;rounded=0;orthogonalLoop=1;jettySize=auto;html=1;entryX=0.508;entryY=0;entryDx=0;entryDy=0;entryPerimeter=0;" edge="1" parent="1" source="CAdHEho802mkfugjiyNk-57" target="CAdHEho802mkfugjiyNk-17">
          <mxGeometry relative="1" as="geometry" />
        </mxCell>
        <mxCell id="CAdHEho802mkfugjiyNk-66" style="edgeStyle=orthogonalEdgeStyle;rounded=0;orthogonalLoop=1;jettySize=auto;html=1;entryX=0;entryY=0.5;entryDx=0;entryDy=0;" edge="1" parent="1" source="CAdHEho802mkfugjiyNk-12" target="CAdHEho802mkfugjiyNk-9">
          <mxGeometry relative="1" as="geometry" />
        </mxCell>
        <mxCell id="CAdHEho802mkfugjiyNk-67" style="edgeStyle=orthogonalEdgeStyle;rounded=0;orthogonalLoop=1;jettySize=auto;html=1;" edge="1" parent="1" source="CAdHEho802mkfugjiyNk-9" target="CAdHEho802mkfugjiyNk-51">
          <mxGeometry relative="1" as="geometry" />
        </mxCell>
        <mxCell id="CAdHEho802mkfugjiyNk-68" style="edgeStyle=orthogonalEdgeStyle;rounded=0;orthogonalLoop=1;jettySize=auto;html=1;entryX=0.5;entryY=0;entryDx=0;entryDy=0;curved=1;" edge="1" parent="1" source="CAdHEho802mkfugjiyNk-69" target="CAdHEho802mkfugjiyNk-7">
          <mxGeometry relative="1" as="geometry" />
        </mxCell>
        <mxCell id="CAdHEho802mkfugjiyNk-69" value="" style="shape=image;verticalLabelPosition=bottom;verticalAlign=top;imageAspect=0;aspect=fixed;image=data:image/svg+xml,PHN2ZyB4bWxucz0iaHR0cDovL3d3dy53My5vcmcvMjAwMC9zdmciIHdpZHRoPSIzMiIgaGVpZ2h0PSIzMiIgdmlld0JveD0iMCAwIDMyIDMyIiBmaWxsPSJub25lIj4mI3hhOzxwYXRoIGQ9Ik0wIDE2QzAgNy4xNjM0NCA3LjE2MzQ0IDAgMTYgMFYwQzI0LjgzNjYgMCAzMiA3LjE2MzQ0IDMyIDE2VjE2QzMyIDI0LjgzNjYgMjQuODM2NiAzMiAxNiAzMlYzMkM3LjE2MzQ0IDMyIDAgMjQuODM2NiAwIDE2VjE2WiIgZmlsbD0iIzUyODJGRiIvPiYjeGE7PHBhdGggZD0iTTEyIDExSDE4LjlDMTguNCA5LjggMTYuNSA5IDE0IDlDMTEuMiA5IDkgMTAuMSA5IDExLjVWMjAuNUM5IDIxLjkgMTEuMiAyMyAxNCAyM0MxNi41IDIzIDE4LjQgMjIuMiAxOC45IDIxSDEyVjExWk0xMyAxMlYyMEgyNVYxMkgxM1pNMTcuMyAxOEgxNkwxNSAxNkwxNiAxNEgxNy4zTDE2LjMgMTZMMTcuMyAxOFpNMTkgMTlIMTcuOEwxOSAxM0gyMC4yTDE5IDE5Wk0yMiAxOEgyMC43TDIxLjggMTZMMjAuNyAxNEgyMkwyMyAxNkwyMiAxOFoiIGZpbGw9IndoaXRlIi8+JiN4YTs8L3N2Zz4=;" vertex="1" parent="1">
          <mxGeometry x="640" y="390" width="60" height="60" as="geometry" />
        </mxCell>
        <mxCell id="CAdHEho802mkfugjiyNk-70" value="Managed service for MySQL" style="text;html=1;align=center;verticalAlign=middle;whiteSpace=wrap;rounded=0;fontSize=17;fontFamily=Arial;fontStyle=1" vertex="1" parent="1">
          <mxGeometry x="710" y="385" width="140" height="70" as="geometry" />
        </mxCell>
        <mxCell id="CAdHEho802mkfugjiyNk-71" style="edgeStyle=orthogonalEdgeStyle;rounded=0;orthogonalLoop=1;jettySize=auto;html=1;entryX=0.5;entryY=1;entryDx=0;entryDy=0;curved=1;" edge="1" parent="1" source="CAdHEho802mkfugjiyNk-7" target="CAdHEho802mkfugjiyNk-20">
          <mxGeometry relative="1" as="geometry">
            <Array as="points">
              <mxPoint x="480" y="1030" />
              <mxPoint x="760" y="1030" />
            </Array>
          </mxGeometry>
        </mxCell>
      </root>
    </mxGraphModel>
  </diagram>
</mxfile>
